 <svg  version="1.0" xmlns="http://www.w3.org/2000/svg"  width="300.000000pt" height="297.000000pt" viewBox="0 0 300.000000 297.000000"  preserveAspectRatio="xMidYMid meet">  <g transform="translate(0.000000,297.000000) scale(0.100000,-0.100000)" fill="#f6f4f4" stroke="none"> <path d="M270 2605 c0 -78 3 -95 15 -95 12 0 15 17 15 95 0 78 -3 95 -15 95 -12 0 -15 -17 -15 -95z"/> <path d="M350 2698 c-1 -2 -1 -43 -2 -92 -1 -60 3 -91 10 -94 9 -3 12 20 12 75 l1 78 40 -77 c29 -55 47 -78 60 -78 17 0 19 9 19 95 0 78 -3 95 -15 95 -12 0 -15 -15 -15 -77 l-1 -78 -40 78 c-22 44 -46 77 -54 77 -8 0 -15 -1 -15 -2z"/> <path d="M537 2693 c-4 -3 -7 -46 -7 -95 0 -72 3 -88 15 -88 11 0 15 11 15 40 0 39 1 40 33 40 18 0 38 5 45 12 20 20 14 65 -10 82 -23 16 -79 22 -91 9z m87 -39 c9 -22 -11 -44 -40 -44 -20 0 -24 5 -24 30 0 26 3 30 29 30 17 0 31 -6 35 -16z"/> <path d="M680 2626 c0 -69 2 -76 26 -95 34 -26 68 -27 94 -1 16 16 20 33 20 96 0 56 -3 75 -12 71 -9 -2 -12 -21 -10 -59 5 -74 -9 -100 -51 -96 l-32 3 -3 78 c-2 59 -6 77 -17 77 -12 0 -15 -16 -15 -74z"/> <path d="M840 2685 c0 -10 10 -15 30 -15 l30 0 0 -80 c0 -64 3 -80 15 -80 12 0 15 16 15 80 l0 80 35 0 c24 0 35 5 35 15 0 12 -16 15 -80 15 -64 0 -80 -3 -80 -15z"/> <path d="M1090 2651 c0 -5 7 -14 15 -21 27 -23 27 -48 -1 -85 -20 -26 -23 -35 -11 -35 8 0 25 12 36 28 l21 27 21 -27 c11 -16 28 -28 36 -28 12 0 9 8 -11 34 -31 41 -31 44 -6 76 23 30 25 40 7 40 -8 0 -20 -11 -27 -25 -7 -14 -16 -25 -20 -25 -4 0 -13 11 -20 25 -13 24 -40 35 -40 16z"/> <path d="M740 2374 l0 -57 -40 6 c-22 3 -40 2 -40 -2 0 -4 20 -27 45 -51 l45 -44 45 44 c25 24 45 47 45 51 0 4 -18 5 -40 2 l-40 -6 0 57 c0 31 -4 56 -10 56 -5 0 -10 -25 -10 -56z"/> <path d="M560 2306 c-10 -13 -4 -25 36 -72 l48 -56 -1 -91 -2 -91 -90 3 c-143 4 -131 50 -131 -502 0 -437 1 -465 18 -480 17 -16 84 -17 755 -17 l737 0 0 -106 0 -106 -46 -54 c-28 -33 -44 -60 -40 -69 10 -28 32 -15 84 49 l52 64 0 125 c0 93 -3 127 -14 136 -10 8 -211 11 -755 9 l-741 -3 0 452 0 452 108 3 107 3 3 120 3 120 -51 60 c-58 68 -62 71 -80 51z"/> <path d="M857 2253 l-57 -67 0 -106 c0 -69 4 -110 12 -118 9 -9 200 -12 800 -12 l788 0 -2 -451 -3 -451 -138 1 c-94 1 -143 -2 -153 -10 -11 -9 -14 -41 -14 -138 l0 -126 58 -64 c36 -40 63 -62 70 -57 21 12 14 30 -33 85 l-45 53 0 104 0 104 138 0 c94 0 142 4 150 12 9 9 12 131 12 490 0 462 -1 478 -19 488 -13 7 -280 10 -795 10 l-776 0 0 88 0 87 46 53 c43 49 53 81 28 89 -6 2 -36 -27 -67 -64z"/> <path d="M2108 1589 c-10 -5 -18 -16 -18 -24 0 -7 -6 -16 -12 -19 -10 -5 -10 -7 0 -12 8 -4 12 -28 12 -71 0 -47 3 -64 13 -61 7 3 13 28 15 66 2 46 7 62 17 62 8 0 15 5 15 10 0 6 -10 10 -21 10 -18 0 -19 3 -9 14 6 8 18 12 26 9 8 -3 14 1 14 11 0 18 -26 21 -52 5z"/> <path d="M713 1498 c1 -60 6 -93 14 -95 8 -3 13 12 15 43 3 46 4 48 33 49 45 0 46 19 2 23 -33 3 -38 6 -35 25 3 19 8 22 41 19 28 -3 37 0 37 12 0 13 -12 16 -55 16 l-55 0 3 -92z"/> <path d="M852 1515 c4 -87 18 -107 73 -107 54 0 67 19 73 106 4 66 2 76 -12 76 -13 0 -16 -12 -16 -68 0 -72 -10 -92 -45 -92 -35 0 -45 20 -45 92 0 56 -3 68 -16 68 -14 0 -16 -11 -12 -75z"/> <path d="M1040 1505 c0 -47 0 -88 -1 -92 0 -4 4 -9 10 -11 6 -2 11 27 13 75 l3 78 34 -65 c62 -122 81 -119 81 11 0 72 -3 89 -15 89 -12 0 -15 -15 -15 -72 l0 -73 -40 73 c-55 98 -70 96 -70 -13z"/> <path d="M1263 1580 c-29 -12 -43 -40 -43 -89 0 -44 24 -76 63 -83 33 -6 87 11 87 27 0 17 -16 20 -25 5 -3 -5 -21 -10 -40 -10 -57 0 -83 59 -49 109 15 21 22 23 65 18 53 -7 66 7 23 23 -30 12 -51 12 -81 0z"/> <path d="M1373 1578 c2 -7 18 -12 36 -12 l31 2 0 -85 c0 -61 3 -84 12 -81 8 3 12 32 12 84 l1 79 33 -3 c24 -3 32 0 32 12 0 13 -14 16 -81 16 -60 0 -80 -3 -76 -12z"/> <path d="M1552 1498 c2 -62 7 -93 16 -96 9 -3 12 20 12 92 0 80 -3 96 -15 96 -13 0 -15 -15 -13 -92z"/> <path d="M1645 1565 c-19 -18 -25 -35 -25 -70 0 -57 25 -85 76 -85 48 0 70 13 83 50 32 94 -68 172 -134 105z m98 -23 c21 -19 22 -60 1 -90 -12 -17 -24 -22 -47 -20 -63 6 -76 96 -17 125 25 12 33 10 63 -15z"/> <path d="M1820 1495 c0 -77 3 -95 15 -95 11 0 15 17 17 73 l3 72 34 -65 c32 -61 46 -79 64 -80 4 0 7 43 7 95 0 57 -4 95 -10 95 -6 0 -10 -33 -10 -77 l0 -78 -42 78 c-29 52 -48 77 -60 77 -16 0 -18 -10 -18 -95z"/> <path d="M2170 1420 c0 -11 7 -20 15 -20 8 0 15 9 15 20 0 11 -7 20 -15 20 -8 0 -15 -9 -15 -20z"/> <path d="M2030 715 l0 -55 -40 0 c-22 0 -40 -1 -40 -3 0 -2 21 -25 46 -51 l45 -48 45 48 c24 26 44 49 44 51 0 2 -18 3 -40 3 l-40 0 0 55 c0 30 -4 55 -10 55 -5 0 -10 -25 -10 -55z"/> <path d="M2402 508 c-7 -7 -12 -17 -12 -24 0 -7 -6 -15 -12 -18 -10 -5 -10 -7 0 -12 7 -4 12 -27 12 -65 0 -47 3 -59 16 -59 14 0 15 9 9 60 -7 56 -6 60 14 60 12 0 21 5 21 10 0 6 -9 10 -21 10 -27 0 -19 24 9 28 12 2 22 8 22 13 0 13 -44 11 -58 -3z"/> <path d="M2492 495 c-22 -49 -25 -101 -7 -154 9 -29 23 -51 31 -51 17 0 17 1 -1 36 -19 37 -19 115 -1 159 12 28 12 35 2 35 -7 0 -18 -11 -24 -25z"/> <path d="M2726 488 c21 -40 21 -112 1 -161 -13 -30 -13 -37 -3 -37 18 0 46 71 46 115 0 45 -28 115 -46 115 -12 0 -12 -5 2 -32z"/> <path d="M1305 485 c-19 -18 -25 -35 -25 -65 0 -105 141 -126 166 -25 22 90 -78 154 -141 90z m99 -17 c46 -66 -19 -153 -76 -101 -23 20 -24 85 -2 107 22 23 60 20 78 -6z"/> <path d="M1480 440 c0 -82 18 -110 73 -110 50 0 65 23 69 108 2 59 0 72 -12 72 -12 0 -14 -11 -12 -50 5 -71 -4 -98 -33 -106 -42 -10 -55 10 -55 87 0 55 -3 69 -15 69 -12 0 -15 -14 -15 -70z"/> <path d="M1640 501 c0 -6 14 -11 32 -13 l31 -3 -2 -77 c-2 -65 0 -78 13 -78 13 0 16 14 16 80 l0 80 35 0 c19 0 35 5 35 10 0 6 -33 10 -80 10 -44 0 -80 -4 -80 -9z"/> <path d="M1820 420 c0 -73 3 -90 15 -90 10 0 15 11 15 35 0 30 3 35 23 35 36 0 67 27 67 60 0 36 -23 50 -79 50 l-41 0 0 -90z m89 52 c13 -24 2 -39 -32 -47 -26 -7 -27 -5 -27 29 0 32 3 36 25 36 13 0 29 -8 34 -18z"/> <path d="M1970 436 c0 -66 3 -77 22 -90 31 -22 74 -20 98 4 16 16 20 33 20 90 0 56 -3 70 -15 70 -12 0 -15 -14 -15 -69 0 -77 -13 -97 -55 -87 -24 6 -25 10 -25 81 0 60 -3 75 -15 75 -12 0 -15 -15 -15 -74z"/> <path d="M2130 500 c0 -5 14 -10 30 -10 l30 0 0 -80 c0 -64 3 -80 15 -80 12 0 15 16 15 80 l0 80 35 0 c19 0 35 5 35 10 0 6 -33 10 -80 10 -47 0 -80 -4 -80 -10z"/> <path d="M2560 462 c0 -5 9 -17 20 -27 26 -23 25 -29 -6 -71 -24 -32 -25 -34 -7 -34 11 0 25 11 31 25 6 14 15 25 20 25 5 0 15 -11 22 -25 7 -14 22 -25 32 -25 17 0 16 5 -11 37 l-30 36 26 31 c17 21 21 32 13 34 -7 3 -21 -6 -32 -19 l-19 -24 -16 23 c-15 21 -43 30 -43 14z"/> </g> </svg> 